<svg width="208" height="28" viewBox="0 0 208 28" fill="none" xmlns="http://www.w3.org/2000/svg">
<path d="M5.922 11.19C6.602 10.1473 7.452 9.33133 8.472 8.742C9.492 8.13 10.6253 7.824 11.872 7.824V13.978H10.274C8.82333 13.978 7.73533 14.2953 7.01 14.93C6.28467 15.542 5.922 16.63 5.922 18.194V27H0.108V8.028H5.922V11.19ZM20.907 27.272C19.0483 27.272 17.371 26.8753 15.875 26.082C14.4016 25.2887 13.2343 24.1553 12.373 22.682C11.5343 21.2087 11.115 19.486 11.115 17.514C11.115 15.5647 11.5456 13.8533 12.407 12.38C13.2683 10.884 14.447 9.73933 15.943 8.946C17.439 8.15267 19.1163 7.756 20.975 7.756C22.8336 7.756 24.511 8.15267 26.007 8.946C27.503 9.73933 28.6816 10.884 29.543 12.38C30.4043 13.8533 30.835 15.5647 30.835 17.514C30.835 19.4633 30.393 21.186 29.509 22.682C28.6476 24.1553 27.4576 25.2887 25.939 26.082C24.443 26.8753 22.7656 27.272 20.907 27.272ZM20.907 22.24C22.0176 22.24 22.9583 21.832 23.729 21.016C24.5223 20.2 24.919 19.0327 24.919 17.514C24.919 15.9953 24.5336 14.828 23.763 14.012C23.015 13.196 22.0856 12.788 20.975 12.788C19.8416 12.788 18.901 13.196 18.153 14.012C17.405 14.8053 17.031 15.9727 17.031 17.514C17.031 19.0327 17.3936 20.2 18.119 21.016C18.867 21.832 19.7963 22.24 20.907 22.24ZM37.3534 10.714C37.8974 9.83 38.6794 9.116 39.6994 8.572C40.7194 8.028 41.8867 7.756 43.2014 7.756C44.7654 7.756 46.1821 8.15267 47.4514 8.946C48.7207 9.73933 49.7181 10.8727 50.4434 12.346C51.1914 13.8193 51.5654 15.5307 51.5654 17.48C51.5654 19.4293 51.1914 21.152 50.4434 22.648C49.7181 24.1213 48.7207 25.266 47.4514 26.082C46.1821 26.8753 44.7654 27.272 43.2014 27.272C41.8641 27.272 40.6967 27.0113 39.6994 26.49C38.7021 25.946 37.9201 25.232 37.3534 24.348V27H31.5394V1.84H37.3534V10.714ZM45.6494 17.48C45.6494 16.0293 45.2414 14.896 44.4254 14.08C43.6321 13.2413 42.6461 12.822 41.4674 12.822C40.3114 12.822 39.3254 13.2413 38.5094 14.08C37.7161 14.9187 37.3194 16.0633 37.3194 17.514C37.3194 18.9647 37.7161 20.1093 38.5094 20.948C39.3254 21.7867 40.3114 22.206 41.4674 22.206C42.6234 22.206 43.6094 21.7867 44.4254 20.948C45.2414 20.0867 45.6494 18.9307 45.6494 17.48ZM61.7556 12.856H58.6276V27H52.8136V12.856H50.7056V8.028H52.8136V7.484C52.8136 5.14933 53.4822 3.38133 54.8196 2.18C56.1569 0.955999 58.1176 0.343999 60.7016 0.343999C61.1322 0.343999 61.4496 0.355332 61.6536 0.377998V5.308C60.5429 5.24 59.7609 5.39867 59.3076 5.784C58.8542 6.16933 58.6276 6.86067 58.6276 7.858V8.028H61.7556V12.856ZM67.9215 11.19C68.6015 10.1473 69.4515 9.33133 70.4715 8.742C71.4915 8.13 72.6249 7.824 73.8715 7.824V13.978H72.2735C70.8229 13.978 69.7349 14.2953 69.0095 14.93C68.2842 15.542 67.9215 16.63 67.9215 18.194V27H62.1075V8.028H67.9215V11.19ZM73.1145 17.48C73.1145 15.5307 73.4772 13.8193 74.2025 12.346C74.9505 10.8727 75.9592 9.73933 77.2285 8.946C78.4978 8.15267 79.9145 7.756 81.4785 7.756C82.8158 7.756 83.9832 8.028 84.9805 8.572C86.0005 9.116 86.7825 9.83 87.3265 10.714V8.028H93.1405V27H87.3265V24.314C86.7598 25.198 85.9665 25.912 84.9465 26.456C83.9492 27 82.7818 27.272 81.4445 27.272C79.9032 27.272 78.4978 26.8753 77.2285 26.082C75.9592 25.266 74.9505 24.1213 74.2025 22.648C73.4772 21.152 73.1145 19.4293 73.1145 17.48ZM87.3265 17.514C87.3265 16.0633 86.9185 14.9187 86.1025 14.08C85.3092 13.2413 84.3345 12.822 83.1785 12.822C82.0225 12.822 81.0365 13.2413 80.2205 14.08C79.4272 14.896 79.0305 16.0293 79.0305 17.48C79.0305 18.9307 79.4272 20.0867 80.2205 20.948C81.0365 21.7867 82.0225 22.206 83.1785 22.206C84.3345 22.206 85.3092 21.7867 86.1025 20.948C86.9185 20.1093 87.3265 18.9647 87.3265 17.514ZM102.685 27.272C101.03 27.272 99.5567 26.9887 98.2647 26.422C96.9727 25.8553 95.9527 25.0847 95.2047 24.11C94.4567 23.1127 94.0373 22.002 93.9467 20.778H99.6927C99.7607 21.4353 100.067 21.968 100.611 22.376C101.155 22.784 101.823 22.988 102.617 22.988C103.342 22.988 103.897 22.852 104.283 22.58C104.691 22.2853 104.895 21.9113 104.895 21.458C104.895 20.914 104.611 20.5173 104.045 20.268C103.478 19.996 102.56 19.7013 101.291 19.384C99.9307 19.0667 98.7973 18.738 97.8907 18.398C96.984 18.0353 96.202 17.48 95.5447 16.732C94.8873 15.9613 94.5587 14.93 94.5587 13.638C94.5587 12.55 94.8533 11.564 95.4427 10.68C96.0547 9.77333 96.9387 9.05933 98.0947 8.538C99.2733 8.01667 100.667 7.756 102.277 7.756C104.657 7.756 106.527 8.34533 107.887 9.524C109.269 10.7027 110.063 12.2667 110.267 14.216H104.895C104.804 13.5587 104.509 13.0373 104.011 12.652C103.535 12.2667 102.9 12.074 102.107 12.074C101.427 12.074 100.905 12.21 100.543 12.482C100.18 12.7313 99.9987 13.0827 99.9987 13.536C99.9987 14.08 100.282 14.488 100.849 14.76C101.438 15.032 102.345 15.304 103.569 15.576C104.974 15.9387 106.119 16.3013 107.003 16.664C107.887 17.004 108.657 17.5707 109.315 18.364C109.995 19.1347 110.346 20.1773 110.369 21.492C110.369 22.6027 110.051 23.6 109.417 24.484C108.805 25.3453 107.909 26.0253 106.731 26.524C105.575 27.0227 104.226 27.272 102.685 27.272ZM129.43 17.208C129.43 17.752 129.396 18.3187 129.328 18.908H116.17C116.26 20.0867 116.634 20.9933 117.292 21.628C117.972 22.24 118.799 22.546 119.774 22.546C121.224 22.546 122.233 21.934 122.8 20.71H128.988C128.67 21.9567 128.092 23.0787 127.254 24.076C126.438 25.0733 125.406 25.8553 124.16 26.422C122.913 26.9887 121.519 27.272 119.978 27.272C118.119 27.272 116.464 26.8753 115.014 26.082C113.563 25.2887 112.43 24.1553 111.614 22.682C110.798 21.2087 110.39 19.486 110.39 17.514C110.39 15.542 110.786 13.8193 111.58 12.346C112.396 10.8727 113.529 9.73933 114.98 8.946C116.43 8.15267 118.096 7.756 119.978 7.756C121.814 7.756 123.446 8.14133 124.874 8.912C126.302 9.68267 127.412 10.782 128.206 12.21C129.022 13.638 129.43 15.304 129.43 17.208ZM123.48 15.678C123.48 14.6807 123.14 13.8873 122.46 13.298C121.78 12.7087 120.93 12.414 119.91 12.414C118.935 12.414 118.108 12.6973 117.428 13.264C116.77 13.8307 116.362 14.6353 116.204 15.678H123.48ZM135.931 11.19C136.611 10.1473 137.461 9.33133 138.481 8.742C139.501 8.13 140.634 7.824 141.881 7.824V13.978H140.283C138.832 13.978 137.744 14.2953 137.019 14.93C136.293 15.542 135.931 16.63 135.931 18.194V27H130.117V8.028H135.931V11.19ZM145 27.272C143.98 27.272 143.141 26.9773 142.484 26.388C141.849 25.776 141.532 25.028 141.532 24.144C141.532 23.2373 141.849 22.478 142.484 21.866C143.141 21.254 143.98 20.948 145 20.948C145.997 20.948 146.813 21.254 147.448 21.866C148.105 22.478 148.434 23.2373 148.434 24.144C148.434 25.028 148.105 25.776 147.448 26.388C146.813 26.9773 145.997 27.272 145 27.272ZM148.339 17.48C148.339 15.5307 148.702 13.8193 149.427 12.346C150.175 10.8727 151.184 9.73933 152.453 8.946C153.723 8.15267 155.139 7.756 156.703 7.756C157.95 7.756 159.083 8.01667 160.103 8.538C161.146 9.05933 161.962 9.762 162.551 10.646V1.84H168.365V27H162.551V24.28C162.007 25.1867 161.225 25.912 160.205 26.456C159.208 27 158.041 27.272 156.703 27.272C155.139 27.272 153.723 26.8753 152.453 26.082C151.184 25.266 150.175 24.1213 149.427 22.648C148.702 21.152 148.339 19.4293 148.339 17.48ZM162.551 17.514C162.551 16.0633 162.143 14.9187 161.327 14.08C160.534 13.2413 159.559 12.822 158.403 12.822C157.247 12.822 156.261 13.2413 155.445 14.08C154.652 14.896 154.255 16.0293 154.255 17.48C154.255 18.9307 154.652 20.0867 155.445 20.948C156.261 21.7867 157.247 22.206 158.403 22.206C159.559 22.206 160.534 21.7867 161.327 20.948C162.143 20.1093 162.551 18.9647 162.551 17.514ZM188.076 17.208C188.076 17.752 188.042 18.3187 187.974 18.908H174.816C174.906 20.0867 175.28 20.9933 175.938 21.628C176.618 22.24 177.445 22.546 178.42 22.546C179.87 22.546 180.879 21.934 181.446 20.71H187.634C187.316 21.9567 186.738 23.0787 185.9 24.076C185.084 25.0733 184.052 25.8553 182.806 26.422C181.559 26.9887 180.165 27.272 178.624 27.272C176.765 27.272 175.11 26.8753 173.66 26.082C172.209 25.2887 171.076 24.1553 170.26 22.682C169.444 21.2087 169.036 19.486 169.036 17.514C169.036 15.542 169.432 13.8193 170.226 12.346C171.042 10.8727 172.175 9.73933 173.626 8.946C175.076 8.15267 176.742 7.756 178.624 7.756C180.46 7.756 182.092 8.14133 183.52 8.912C184.948 9.68267 186.058 10.782 186.852 12.21C187.668 13.638 188.076 15.304 188.076 17.208ZM182.126 15.678C182.126 14.6807 181.786 13.8873 181.106 13.298C180.426 12.7087 179.576 12.414 178.556 12.414C177.581 12.414 176.754 12.6973 176.074 13.264C175.416 13.8307 175.008 14.6353 174.85 15.678H182.126ZM197.297 21.56L201.411 8.028H207.599L200.867 27H193.693L186.961 8.028H193.183L197.297 21.56Z" fill="#6B21A8"/>
</svg>
