<svg width="421" height="140" viewBox="0 0 421 140" fill="none" xmlns="http://www.w3.org/2000/svg">
<rect width="212" height="140" fill="#B14AED"/>
<path d="M32.375 97V44.6364H54.9773C58.8636 44.6364 62.2642 45.3437 65.179 46.7585C68.0938 48.1733 70.3608 50.2102 71.9801 52.8693C73.5994 55.5284 74.4091 58.7159 74.4091 62.4318C74.4091 66.1818 73.5739 69.3437 71.9034 71.9176C70.25 74.4915 67.9233 76.4347 64.9233 77.7472C61.9403 79.0597 58.4545 79.7159 54.4659 79.7159H40.9659V68.6705H51.6023C53.2727 68.6705 54.696 68.4659 55.8722 68.0568C57.0653 67.6307 57.9773 66.9574 58.608 66.0369C59.2557 65.1165 59.5795 63.9148 59.5795 62.4318C59.5795 60.9318 59.2557 59.7131 58.608 58.7756C57.9773 57.821 57.0653 57.1222 55.8722 56.679C54.696 56.2187 53.2727 55.9886 51.6023 55.9886H46.5909V97H32.375ZM63.0568 72.9659L76.1477 97H60.7045L47.9205 72.9659H63.0568ZM131.196 70.8182C131.196 76.6477 130.063 81.5653 127.795 85.571C125.528 89.5597 122.469 92.5852 118.616 94.6477C114.764 96.6932 110.469 97.7159 105.73 97.7159C100.957 97.7159 96.6449 96.6847 92.7926 94.6222C88.9574 92.5426 85.9062 89.5085 83.6392 85.5199C81.3892 81.5142 80.2642 76.6136 80.2642 70.8182C80.2642 64.9886 81.3892 60.0795 83.6392 56.0909C85.9062 52.0852 88.9574 49.0597 92.7926 47.0142C96.6449 44.9517 100.957 43.9205 105.73 43.9205C110.469 43.9205 114.764 44.9517 118.616 47.0142C122.469 49.0597 125.528 52.0852 127.795 56.0909C130.063 60.0795 131.196 64.9886 131.196 70.8182ZM116.571 70.8182C116.571 67.6818 116.153 65.0398 115.318 62.892C114.5 60.7273 113.281 59.0909 111.662 57.983C110.06 56.858 108.082 56.2955 105.73 56.2955C103.378 56.2955 101.392 56.858 99.7727 57.983C98.1705 59.0909 96.9517 60.7273 96.1165 62.892C95.2983 65.0398 94.8892 67.6818 94.8892 70.8182C94.8892 73.9545 95.2983 76.6051 96.1165 78.7699C96.9517 80.9176 98.1705 82.554 99.7727 83.679C101.392 84.7869 103.378 85.3409 105.73 85.3409C108.082 85.3409 110.06 84.7869 111.662 83.679C113.281 82.554 114.5 80.9176 115.318 78.7699C116.153 76.6051 116.571 73.9545 116.571 70.8182ZM137.773 97V44.6364H160.478C164.467 44.6364 167.816 45.1733 170.526 46.2472C173.254 47.321 175.308 48.8381 176.688 50.7983C178.086 52.7585 178.785 55.0682 178.785 57.7273C178.785 59.6534 178.359 61.4091 177.506 62.9943C176.671 64.5795 175.495 65.9091 173.978 66.983C172.461 68.0398 170.688 68.7727 168.66 69.1818V69.6932C170.91 69.7784 172.955 70.3494 174.796 71.4062C176.637 72.446 178.103 73.8864 179.194 75.7273C180.285 77.5511 180.83 79.6989 180.83 82.1705C180.83 85.0341 180.08 87.5824 178.58 89.8153C177.097 92.0483 174.984 93.804 172.239 95.0824C169.495 96.3608 166.222 97 162.421 97H137.773ZM151.989 85.6477H158.637C161.023 85.6477 162.813 85.2045 164.006 84.3182C165.2 83.4148 165.796 82.0852 165.796 80.3295C165.796 79.1023 165.515 78.0625 164.952 77.2102C164.39 76.358 163.589 75.7102 162.549 75.267C161.526 74.8239 160.29 74.6023 158.842 74.6023H151.989V85.6477ZM151.989 65.8068H157.819C159.063 65.8068 160.163 65.6108 161.117 65.2188C162.072 64.8267 162.813 64.2642 163.342 63.5312C163.887 62.7812 164.16 61.8693 164.16 60.7955C164.16 59.1761 163.58 57.9403 162.421 57.0881C161.262 56.2188 159.796 55.7841 158.023 55.7841H151.989V65.8068Z" fill="white"/>
<path d="M254.25 97.8182C252.273 97.8182 250.577 97.1278 249.162 95.7472C247.764 94.3494 247.074 92.6534 247.091 90.6591C247.074 88.7159 247.764 87.054 249.162 85.6733C250.577 84.2926 252.273 83.6023 254.25 83.6023C256.125 83.6023 257.778 84.2926 259.21 85.6733C260.659 87.054 261.392 88.7159 261.409 90.6591C261.392 91.9886 261.043 93.1989 260.361 94.2898C259.696 95.3636 258.827 96.2244 257.753 96.8722C256.679 97.5028 255.511 97.8182 254.25 97.8182ZM289.023 97H268.875V44.6364H288.818C294.205 44.6364 298.858 45.6847 302.778 47.7812C306.716 49.8608 309.75 52.8608 311.881 56.7812C314.028 60.6847 315.102 65.3636 315.102 70.8182C315.102 76.2727 314.037 80.9602 311.906 84.8807C309.776 88.7841 306.759 91.7841 302.855 93.8807C298.952 95.9602 294.341 97 289.023 97ZM283.091 84.9318H288.511C291.102 84.9318 293.31 84.5142 295.134 83.679C296.974 82.8437 298.372 81.4034 299.327 79.358C300.298 77.3125 300.784 74.4659 300.784 70.8182C300.784 67.1705 300.29 64.3239 299.301 62.2784C298.33 60.233 296.898 58.7926 295.006 57.9574C293.131 57.1222 290.83 56.7045 288.102 56.7045H283.091V84.9318ZM321.68 97V44.6364H359.418V56.0909H335.896V65.0909H357.475V76.5455H335.896V85.5455H359.316V97H321.68ZM380.787 44.6364L391.526 81.5568H391.935L402.673 44.6364H418.73L401.446 97H382.014L364.73 44.6364H380.787Z" fill="white"/>
</svg>
