<svg width="210" height="51" viewBox="0 0 210 51" fill="none" xmlns="http://www.w3.org/2000/svg">
<path d="M7.922 21.19C8.602 20.1473 9.452 19.3313 10.472 18.742C11.492 18.13 12.6253 17.824 13.872 17.824V23.978H12.274C10.8233 23.978 9.73533 24.2953 9.01 24.93C8.28467 25.542 7.922 26.63 7.922 28.194V37H2.108V18.028H7.922V21.19ZM22.907 37.272C21.0483 37.272 19.371 36.8753 17.875 36.082C16.4016 35.2887 15.2343 34.1553 14.373 32.682C13.5343 31.2087 13.115 29.486 13.115 27.514C13.115 25.5647 13.5456 23.8533 14.407 22.38C15.2683 20.884 16.447 19.7393 17.943 18.946C19.439 18.1527 21.1163 17.756 22.975 17.756C24.8336 17.756 26.511 18.1527 28.007 18.946C29.503 19.7393 30.6816 20.884 31.543 22.38C32.4043 23.8533 32.835 25.5647 32.835 27.514C32.835 29.4633 32.393 31.186 31.509 32.682C30.6476 34.1553 29.4576 35.2887 27.939 36.082C26.443 36.8753 24.7656 37.272 22.907 37.272ZM22.907 32.24C24.0176 32.24 24.9583 31.832 25.729 31.016C26.5223 30.2 26.919 29.0327 26.919 27.514C26.919 25.9953 26.5336 24.828 25.763 24.012C25.015 23.196 24.0856 22.788 22.975 22.788C21.8416 22.788 20.901 23.196 20.153 24.012C19.405 24.8053 19.031 25.9727 19.031 27.514C19.031 29.0327 19.3936 30.2 20.119 31.016C20.867 31.832 21.7963 32.24 22.907 32.24ZM39.3534 20.714C39.8974 19.83 40.6794 19.116 41.6994 18.572C42.7194 18.028 43.8867 17.756 45.2014 17.756C46.7654 17.756 48.1821 18.1527 49.4514 18.946C50.7207 19.7393 51.7181 20.8727 52.4434 22.346C53.1914 23.8193 53.5654 25.5307 53.5654 27.48C53.5654 29.4293 53.1914 31.152 52.4434 32.648C51.7181 34.1213 50.7207 35.266 49.4514 36.082C48.1821 36.8753 46.7654 37.272 45.2014 37.272C43.8641 37.272 42.6967 37.0113 41.6994 36.49C40.7021 35.946 39.9201 35.232 39.3534 34.348V37H33.5394V11.84H39.3534V20.714ZM47.6494 27.48C47.6494 26.0293 47.2414 24.896 46.4254 24.08C45.6321 23.2413 44.6461 22.822 43.4674 22.822C42.3114 22.822 41.3254 23.2413 40.5094 24.08C39.7161 24.9187 39.3194 26.0633 39.3194 27.514C39.3194 28.9647 39.7161 30.1093 40.5094 30.948C41.3254 31.7867 42.3114 32.206 43.4674 32.206C44.6234 32.206 45.6094 31.7867 46.4254 30.948C47.2414 30.0867 47.6494 28.9307 47.6494 27.48ZM63.7556 22.856H60.6276V37H54.8136V22.856H52.7056V18.028H54.8136V17.484C54.8136 15.1493 55.4822 13.3813 56.8196 12.18C58.1569 10.956 60.1176 10.344 62.7016 10.344C63.1322 10.344 63.4496 10.3553 63.6536 10.378V15.308C62.5429 15.24 61.7609 15.3987 61.3076 15.784C60.8542 16.1693 60.6276 16.8607 60.6276 17.858V18.028H63.7556V22.856ZM69.9215 21.19C70.6015 20.1473 71.4515 19.3313 72.4715 18.742C73.4915 18.13 74.6249 17.824 75.8715 17.824V23.978H74.2735C72.8229 23.978 71.7349 24.2953 71.0095 24.93C70.2842 25.542 69.9215 26.63 69.9215 28.194V37H64.1075V18.028H69.9215V21.19ZM75.1145 27.48C75.1145 25.5307 75.4772 23.8193 76.2025 22.346C76.9505 20.8727 77.9592 19.7393 79.2285 18.946C80.4978 18.1527 81.9145 17.756 83.4785 17.756C84.8158 17.756 85.9832 18.028 86.9805 18.572C88.0005 19.116 88.7825 19.83 89.3265 20.714V18.028H95.1405V37H89.3265V34.314C88.7598 35.198 87.9665 35.912 86.9465 36.456C85.9492 37 84.7818 37.272 83.4445 37.272C81.9032 37.272 80.4978 36.8753 79.2285 36.082C77.9592 35.266 76.9505 34.1213 76.2025 32.648C75.4772 31.152 75.1145 29.4293 75.1145 27.48ZM89.3265 27.514C89.3265 26.0633 88.9185 24.9187 88.1025 24.08C87.3092 23.2413 86.3345 22.822 85.1785 22.822C84.0225 22.822 83.0365 23.2413 82.2205 24.08C81.4272 24.896 81.0305 26.0293 81.0305 27.48C81.0305 28.9307 81.4272 30.0867 82.2205 30.948C83.0365 31.7867 84.0225 32.206 85.1785 32.206C86.3345 32.206 87.3092 31.7867 88.1025 30.948C88.9185 30.1093 89.3265 28.9647 89.3265 27.514ZM104.685 37.272C103.03 37.272 101.557 36.9887 100.265 36.422C98.9727 35.8553 97.9527 35.0847 97.2047 34.11C96.4567 33.1127 96.0373 32.002 95.9467 30.778H101.693C101.761 31.4353 102.067 31.968 102.611 32.376C103.155 32.784 103.823 32.988 104.617 32.988C105.342 32.988 105.897 32.852 106.283 32.58C106.691 32.2853 106.895 31.9113 106.895 31.458C106.895 30.914 106.611 30.5173 106.045 30.268C105.478 29.996 104.56 29.7013 103.291 29.384C101.931 29.0667 100.797 28.738 99.8907 28.398C98.984 28.0353 98.202 27.48 97.5447 26.732C96.8873 25.9613 96.5587 24.93 96.5587 23.638C96.5587 22.55 96.8533 21.564 97.4427 20.68C98.0547 19.7733 98.9387 19.0593 100.095 18.538C101.273 18.0167 102.667 17.756 104.277 17.756C106.657 17.756 108.527 18.3453 109.887 19.524C111.269 20.7027 112.063 22.2667 112.267 24.216H106.895C106.804 23.5587 106.509 23.0373 106.011 22.652C105.535 22.2667 104.9 22.074 104.107 22.074C103.427 22.074 102.905 22.21 102.543 22.482C102.18 22.7313 101.999 23.0827 101.999 23.536C101.999 24.08 102.282 24.488 102.849 24.76C103.438 25.032 104.345 25.304 105.569 25.576C106.974 25.9387 108.119 26.3013 109.003 26.664C109.887 27.004 110.657 27.5707 111.315 28.364C111.995 29.1347 112.346 30.1773 112.369 31.492C112.369 32.6027 112.051 33.6 111.417 34.484C110.805 35.3453 109.909 36.0253 108.731 36.524C107.575 37.0227 106.226 37.272 104.685 37.272ZM131.43 27.208C131.43 27.752 131.396 28.3187 131.328 28.908H118.17C118.26 30.0867 118.634 30.9933 119.292 31.628C119.972 32.24 120.799 32.546 121.774 32.546C123.224 32.546 124.233 31.934 124.8 30.71H130.988C130.67 31.9567 130.092 33.0787 129.254 34.076C128.438 35.0733 127.406 35.8553 126.16 36.422C124.913 36.9887 123.519 37.272 121.978 37.272C120.119 37.272 118.464 36.8753 117.014 36.082C115.563 35.2887 114.43 34.1553 113.614 32.682C112.798 31.2087 112.39 29.486 112.39 27.514C112.39 25.542 112.786 23.8193 113.58 22.346C114.396 20.8727 115.529 19.7393 116.98 18.946C118.43 18.1527 120.096 17.756 121.978 17.756C123.814 17.756 125.446 18.1413 126.874 18.912C128.302 19.6827 129.412 20.782 130.206 22.21C131.022 23.638 131.43 25.304 131.43 27.208ZM125.48 25.678C125.48 24.6807 125.14 23.8873 124.46 23.298C123.78 22.7087 122.93 22.414 121.91 22.414C120.935 22.414 120.108 22.6973 119.428 23.264C118.77 23.8307 118.362 24.6353 118.204 25.678H125.48ZM137.931 21.19C138.611 20.1473 139.461 19.3313 140.481 18.742C141.501 18.13 142.634 17.824 143.881 17.824V23.978H142.283C140.832 23.978 139.744 24.2953 139.019 24.93C138.293 25.542 137.931 26.63 137.931 28.194V37H132.117V18.028H137.931V21.19ZM147 37.272C145.98 37.272 145.141 36.9773 144.484 36.388C143.849 35.776 143.532 35.028 143.532 34.144C143.532 33.2373 143.849 32.478 144.484 31.866C145.141 31.254 145.98 30.948 147 30.948C147.997 30.948 148.813 31.254 149.448 31.866C150.105 32.478 150.434 33.2373 150.434 34.144C150.434 35.028 150.105 35.776 149.448 36.388C148.813 36.9773 147.997 37.272 147 37.272ZM150.339 27.48C150.339 25.5307 150.702 23.8193 151.427 22.346C152.175 20.8727 153.184 19.7393 154.453 18.946C155.723 18.1527 157.139 17.756 158.703 17.756C159.95 17.756 161.083 18.0167 162.103 18.538C163.146 19.0593 163.962 19.762 164.551 20.646V11.84H170.365V37H164.551V34.28C164.007 35.1867 163.225 35.912 162.205 36.456C161.208 37 160.041 37.272 158.703 37.272C157.139 37.272 155.723 36.8753 154.453 36.082C153.184 35.266 152.175 34.1213 151.427 32.648C150.702 31.152 150.339 29.4293 150.339 27.48ZM164.551 27.514C164.551 26.0633 164.143 24.9187 163.327 24.08C162.534 23.2413 161.559 22.822 160.403 22.822C159.247 22.822 158.261 23.2413 157.445 24.08C156.652 24.896 156.255 26.0293 156.255 27.48C156.255 28.9307 156.652 30.0867 157.445 30.948C158.261 31.7867 159.247 32.206 160.403 32.206C161.559 32.206 162.534 31.7867 163.327 30.948C164.143 30.1093 164.551 28.9647 164.551 27.514ZM190.076 27.208C190.076 27.752 190.042 28.3187 189.974 28.908H176.816C176.906 30.0867 177.28 30.9933 177.938 31.628C178.618 32.24 179.445 32.546 180.42 32.546C181.87 32.546 182.879 31.934 183.446 30.71H189.634C189.316 31.9567 188.738 33.0787 187.9 34.076C187.084 35.0733 186.052 35.8553 184.806 36.422C183.559 36.9887 182.165 37.272 180.624 37.272C178.765 37.272 177.11 36.8753 175.66 36.082C174.209 35.2887 173.076 34.1553 172.26 32.682C171.444 31.2087 171.036 29.486 171.036 27.514C171.036 25.542 171.432 23.8193 172.226 22.346C173.042 20.8727 174.175 19.7393 175.626 18.946C177.076 18.1527 178.742 17.756 180.624 17.756C182.46 17.756 184.092 18.1413 185.52 18.912C186.948 19.6827 188.058 20.782 188.852 22.21C189.668 23.638 190.076 25.304 190.076 27.208ZM184.126 25.678C184.126 24.6807 183.786 23.8873 183.106 23.298C182.426 22.7087 181.576 22.414 180.556 22.414C179.581 22.414 178.754 22.6973 178.074 23.264C177.416 23.8307 177.008 24.6353 176.85 25.678H184.126ZM199.297 31.56L203.411 18.028H209.599L202.867 37H195.693L188.961 18.028H195.183L199.297 31.56Z" fill="#219EBC"/>
</svg>
